<svg xmlns="http://www.w3.org/2000/svg" width="1920" height="911" style="cursor: move;"><g transform="translate(-1616.6807483614048,-896.3465216984839) scale(2.794085262605705)"><path class="link" marker-end="" d="M800,365.5, 980,465.5" style="stroke-width: 0.93; stroke-opacity: 1; stroke: rgb(80, 80, 80); fill: none;"></path><path class="link" marker-end="" d="M800,405.5, 980,465.5" style="stroke-width: 0.93; stroke-opacity: 1; stroke: rgb(80, 80, 80); fill: none;"></path><path class="link" marker-end="" d="M800,445.5, 980,465.5" style="stroke-width: 0.93; stroke-opacity: 1; stroke: rgb(80, 80, 80); fill: none;"></path><path class="link" marker-end="" d="M800,485.5, 980,465.5" style="stroke-width: 0.93; stroke-opacity: 1; stroke: rgb(80, 80, 80); fill: none;"></path><path class="link" marker-end="" d="M800,525.5, 980,465.5" style="stroke-width: 0.93; stroke-opacity: 1; stroke: rgb(80, 80, 80); fill: none;"></path><path class="link" marker-end="" d="M980,425.5, 1160,445.5" style="stroke-width: 0.93; stroke-opacity: 1; stroke: rgb(80, 80, 80); fill: none;"></path><path class="link" marker-end="" d="M980,465.5, 1160,445.5" style="stroke-width: 0.93; stroke-opacity: 1; stroke: rgb(80, 80, 80); fill: none;"></path><path class="link" marker-end="" d="M800,365.5, 980,425.5" style="stroke-width: 0.93; stroke-opacity: 1; stroke: rgb(80, 80, 80); fill: none;"></path><path class="link" marker-end="" d="M800,405.5, 980,425.5" style="stroke-width: 0.93; stroke-opacity: 1; stroke: rgb(80, 80, 80); fill: none;"></path><path class="link" marker-end="" d="M800,445.5, 980,425.5" style="stroke-width: 0.93; stroke-opacity: 1; stroke: rgb(80, 80, 80); fill: none;"></path><path class="link" marker-end="" d="M800,485.5, 980,425.5" style="stroke-width: 0.93; stroke-opacity: 1; stroke: rgb(80, 80, 80); fill: none;"></path><path class="link" marker-end="" d="M800,525.5, 980,425.5" style="stroke-width: 0.93; stroke-opacity: 1; stroke: rgb(80, 80, 80); fill: none;"></path><circle r="10" class="node" id="0_0" cx="800" cy="365.5" style="fill: rgb(255, 255, 255); stroke: rgb(51, 51, 51);"></circle><circle r="10" class="node" id="0_1" cx="800" cy="405.5" style="fill: rgb(255, 255, 255); stroke: rgb(51, 51, 51);"></circle><circle r="10" class="node" id="0_2" cx="800" cy="445.5" style="fill: rgb(255, 255, 255); stroke: rgb(51, 51, 51);"></circle><circle r="10" class="node" id="0_3" cx="800" cy="485.5" style="fill: rgb(255, 255, 255); stroke: rgb(51, 51, 51);"></circle><circle r="10" class="node" id="0_4" cx="800" cy="525.5" style="fill: rgb(255, 255, 255); stroke: rgb(51, 51, 51);"></circle><circle r="10" class="node" id="1_0" cx="980" cy="425.5" style="fill: rgb(255, 255, 255); stroke: rgb(51, 51, 51);"></circle><circle r="10" class="node" id="1_1" cx="980" cy="465.5" style="fill: rgb(255, 255, 255); stroke: rgb(51, 51, 51);"></circle><circle r="10" class="node" id="2_0" cx="1160" cy="445.5" style="fill: rgb(255, 255, 255); stroke: rgb(51, 51, 51);"></circle><text class="text" dy=".35em" x="765" y="565.5" style="font-size: 12px;">Input Layer ∈ ℝ⁵</text><text class="text" dy=".35em" x="945" y="565.5" style="font-size: 12px;">Hidden Layer ∈ ℝ²</text><text class="text" dy=".35em" x="1125" y="565.5" style="font-size: 12px;">Output Layer ∈ ℝ¹</text></g><defs><marker id="arrow" viewBox="0 -5 10 10" markerWidth="7" markerHeight="7" orient="auto" refX="40"><path d="M0,-5L10,0L0,5" style="stroke: rgb(80, 80, 80); fill: rgb(80, 80, 80);"></path></marker></defs></svg>